HIERARCHY
ROOT hip
{
  OFFSET 0 0 0
  CHANNELS 6 Xposition Yposition Zposition Zrotation Yrotation Xrotation
  JOINT abdomen
  {
    OFFSET 0 20.6881 -0.73152
    CHANNELS 3 Zrotation Xrotation Yrotation
    JOINT chest
    {
      OFFSET 0 11.7043 -0.48768
      CHANNELS 3 Zrotation Xrotation Yrotation
      JOINT neck
      {
        OFFSET 0 22.1894 -2.19456
        CHANNELS 3 Zrotation Xrotation Yrotation
        JOINT head
        {
          OFFSET -0.24384 7.07133 1.2192
          CHANNELS 3 Zrotation Xrotation Yrotation
          JOINT leftEye
          {
            OFFSET 4.14528 8.04674 8.04672
            CHANNELS 3 Zrotation Xrotation Yrotation
            End Site
            {
              OFFSET 1 0 0
            }
          }
          JOINT rightEye
          {
            OFFSET -3.6576 8.04674 8.04672
            CHANNELS 3 Zrotation Xrotation Yrotation
            End Site
            {
              OFFSET 1 0 0
            }
          }
        }
      }
      JOINT rCollar
      {
        OFFSET -2.68224 19.2634 -4.8768
        CHANNELS 3 Zrotation Xrotation Yrotation
        JOINT rShldr
        {
          OFFSET -8.77824 -1.95073 1.46304
          CHANNELS 3 Zrotation Xrotation Yrotation
          JOINT rForeArm
          {
            OFFSET -28.1742 -1.7115 0.48768
            CHANNELS 3 Zrotation Xrotation Yrotation
            JOINT rHand
            {
              OFFSET -22.5879 0.773209 7.07136
              CHANNELS 3 Zrotation Xrotation Yrotation
              JOINT rThumb1
              {
                OFFSET -1.2192 -0.487915 3.41376
                CHANNELS 3 Zrotation Xrotation Yrotation
                JOINT rThumb2
                {
                  OFFSET -3.37035 -0.52449 3.41376
                  CHANNELS 3 Zrotation Xrotation Yrotation
                  End Site
                  {
                    OFFSET -1.78271 -1.18214 1.43049
                  }
                }
              }
              JOINT rIndex1
              {
                OFFSET -7.75947 0.938293 5.60832
                CHANNELS 3 Zrotation Xrotation Yrotation
                JOINT rIndex2
                {
                  OFFSET -2.54057 -0.884171 1.56538
                  CHANNELS 3 Zrotation Xrotation Yrotation
                  End Site
                  {
                    OFFSET -1.62519 -0.234802 1.16502
                  }
                }
              }
              JOINT rMid1
              {
                OFFSET -8.24714 1.18213 3.41376
                CHANNELS 3 Zrotation Xrotation Yrotation
                JOINT rMid2
                {
                  OFFSET -3.10165 -0.590103 1.0647
                  CHANNELS 3 Zrotation Xrotation Yrotation
                  End Site
                  {
                    OFFSET -2.48547 -0.328903 0.83742
                  }
                }
              }
              JOINT rRing1
              {
                OFFSET -8.82822 0.546677 1.51678
                CHANNELS 3 Zrotation Xrotation Yrotation
                JOINT rRing2
                {
                  OFFSET -2.60934 -0.819778 -0.0198488
                  CHANNELS 3 Zrotation Xrotation Yrotation
                  End Site
                  {
                    OFFSET -2.33842 -0.294052 0.168128
                  }
                }
              }
              JOINT rPinky1
              {
                OFFSET -8.27202 -0.0477905 -0.4584
                CHANNELS 3 Zrotation Xrotation Yrotation
                JOINT rPinky2
                {
                  OFFSET -1.82734 -0.647385 -0.700984
                  CHANNELS 3 Zrotation Xrotation Yrotation
                  End Site
                  {
                    OFFSET -1.69225 -0.51767 -0.607171
                  }
                }
              }
            }
          }
        }
      }
      JOINT lCollar
      {
        OFFSET 2.68224 19.2634 -4.8768
        CHANNELS 3 Zrotation Xrotation Yrotation
        JOINT lShldr
        {
          OFFSET 8.77824 -1.95073 1.46304
          CHANNELS 3 Zrotation Xrotation Yrotation
          JOINT lForeArm
          {
            OFFSET 28.1742 -1.7115 0.48768
            CHANNELS 3 Zrotation Xrotation Yrotation
            JOINT lHand
            {
              OFFSET 22.5879 0.773209 7.07136
              CHANNELS 3 Zrotation Xrotation Yrotation
              JOINT lThumb1
              {
                OFFSET 1.2192 -0.487915 3.41376
                CHANNELS 3 Zrotation Xrotation Yrotation
                JOINT lThumb2
                {
                  OFFSET 3.37035 -0.52449 3.41376
                  CHANNELS 3 Zrotation Xrotation Yrotation
                  End Site
                  {
                    OFFSET 1.78271 -1.18214 1.43049
                  }
                }
              }
              JOINT lIndex1
              {
                OFFSET 7.75947 0.938293 5.60832
                CHANNELS 3 Zrotation Xrotation Yrotation
                JOINT lIndex2
                {
                  OFFSET 2.54057 -0.884171 1.56538
                  CHANNELS 3 Zrotation Xrotation Yrotation
                  End Site
                  {
                    OFFSET 1.62519 -0.234802 1.16502
                  }
                }
              }
              JOINT lMid1
              {
                OFFSET 8.24714 1.18213 3.41376
                CHANNELS 3 Zrotation Xrotation Yrotation
                JOINT lMid2
                {
                  OFFSET 3.10165 -0.590103 1.0647
                  CHANNELS 3 Zrotation Xrotation Yrotation
                  End Site
                  {
                    OFFSET 2.48547 -0.328903 0.83742
                  }
                }
              }
              JOINT lRing1
              {
                OFFSET 8.82822 0.546677 1.51678
                CHANNELS 3 Zrotation Xrotation Yrotation
                JOINT lRing2
                {
                  OFFSET 2.60934 -0.819778 -0.0198488
                  CHANNELS 3 Zrotation Xrotation Yrotation
                  End Site
                  {
                    OFFSET 2.33842 -0.294052 0.168128
                  }
                }
              }
              JOINT lPinky1
              {
                OFFSET 8.27202 -0.0477905 -0.4584
                CHANNELS 3 Zrotation Xrotation Yrotation
                JOINT lPinky2
                {
                  OFFSET 1.82734 -0.647385 -0.700984
                  CHANNELS 3 Zrotation Xrotation Yrotation
                  End Site
                  {
                    OFFSET 1.69225 -0.51767 -0.607171
                  }
                }
              }
            }
          }
        }
      }
    }
  }
  JOINT rButtock
  {
    OFFSET -8.77824 4.35084 1.2192
    CHANNELS 3 Zrotation Xrotation Yrotation
    JOINT rThigh
    {
      OFFSET 0 -1.70687 -2.19456
      CHANNELS 3 Zrotation Xrotation Yrotation
      JOINT rShin
      {
        OFFSET 0 -36.8199 0.73152
        CHANNELS 3 Zrotation Xrotation Yrotation
        JOINT rFoot
        {
          OFFSET 0.73152 -45.1104 -5.12064
          CHANNELS 3 Zrotation Xrotation Yrotation
          End Site
          {
            OFFSET -1.1221 -3.69964 12.103
          }
        }
      }
    }
  }
  JOINT lButtock
  {
    OFFSET 8.77824 4.35084 1.2192
    CHANNELS 3 Zrotation Xrotation Yrotation
    JOINT lThigh
    {
      OFFSET 0 -1.70687 -2.19456
      CHANNELS 3 Zrotation Xrotation Yrotation
      JOINT lShin
      {
        OFFSET 0 -36.8199 0.73152
        CHANNELS 3 Zrotation Xrotation Yrotation
        JOINT lFoot
        {
          OFFSET -0.73152 -45.1104 -5.12064
          CHANNELS 3 Zrotation Xrotation Yrotation
          End Site
          {
            OFFSET 1.1221 -3.69964 12.103
          }
        }
      }
    }
  }
}
MOTION
Frames:	5
Frame Time:	0.00833333
26.4421 79.9725 -143.169 -7.7326 -73.2048 29.9308 -17.9804 -15.9731 0.389484 -5.15419 3.46417 0.75591 5.82688 -3.586 8.91453 -3.29823 -9.28277 15.4913 -0.0 0.0 0.0 -0.0 0.0 0.0 1.08783e-13 -4.64795e-13 -2.86837e-13 93.0877 50.1786 -23.6909 -24.7828 -20.6378 52.1874 -0.429544 -18.3037 -2.66468 -1.76462e-09 -2.80363e-10 1.55429e-10 -3.04501e-09 -4.80492e-10 2.52387e-10 -1.76462e-09 -2.80367e-10 1.55427e-10 7.73091 5.47488 0.417314 -1.76462e-09 -2.8037e-10 1.55433e-10 2.90554 0.965183 0.102902 -1.76462e-09 -2.80371e-10 1.55429e-10 10.2786 0.731801 0.0259123 -1.76463e-09 -2.80368e-10 1.55441e-10 2.22167 -0.733487 -0.20892 1.08573e-13 -4.64773e-13 -2.87034e-13 -65.1966 17.6995 1.93767 10.3548 -4.36127 -18.4662 1.16199 -29.0661 4.48023 -2.61721e-09 -1.40058e-09 -3.0772e-09 -4.45777e-09 -2.43069e-09 -5.36783e-09 -2.61721e-09 -1.40058e-09 -3.07719e-09 -7.73091 5.47488 -0.417314 -2.6172e-09 -1.40058e-09 -3.0772e-09 -2.90554 0.965183 -0.102902 -2.61721e-09 -1.40058e-09 -3.0772e-09 -10.2786 0.731801 -0.0259123 -2.6172e-09 -1.40058e-09 -3.07721e-09 -2.22167 -0.733487 0.20892 -2.03217e-16 0.0 -3.88251e-19 -4.45152 -51.5502 1.77026 -3.19213 75.8973 3.93077 0.827768 12.6146 -0.354379 2.03217e-16 0.0 3.88251e-19 -23.226 -49.3964 -14.5175 0.448422 46.2383 -0.276562 0.274713 -13.8416 0.617317
25.4824 80.0807 -143.22 -8.9123 -72.6941 30.8877 -18.0943 -15.8357 0.7263 -4.84228 3.48995 0.850481 5.92203 -3.47511 8.93703 -3.1905 -9.3939 15.5195 -0.0 0.0 0.0 -0.0 0.0 0.0 2.25095e-13 -3.7103e-13 -3.72793e-13 94.5116 49.9024 -25.3309 -24.6657 -20.3968 51.7869 -0.417023 -18.0394 -2.6236 -4.60496e-09 -1.06685e-09 -1.328e-09 -7.92269e-09 -1.83799e-09 -2.34328e-09 -4.60496e-09 -1.06685e-09 -1.32801e-09 7.73091 5.47488 0.417314 -4.60496e-09 -1.06686e-09 -1.328e-09 2.90554 0.965183 0.102902 -4.60496e-09 -1.06686e-09 -1.328e-09 10.2786 0.731801 0.0259123 -4.60497e-09 -1.06685e-09 -1.32799e-09 2.22167 -0.733487 -0.20892 2.24912e-13 -3.71034e-13 -3.72991e-13 -65.3011 19.5265 1.04158 10.7733 -4.62539 -19.2594 1.16645 -29.1155 4.48936 -5.41402e-09 -1.98274e-09 -5.48976e-09 -9.24926e-09 -3.45022e-09 -9.58826e-09 -5.41403e-09 -1.98274e-09 -5.48974e-09 -7.73091 5.47488 -0.417314 -5.41402e-09 -1.98274e-09 -5.48976e-09 -2.90554 0.965183 -0.102902 -5.41403e-09 -1.98274e-09 -5.48976e-09 -10.2786 0.731801 -0.0259123 -5.41402e-09 -1.98274e-09 -5.48976e-09 -2.22167 -0.733487 0.20892 -2.03217e-16 0.0 -3.88251e-19 -2.80953 -52.2652 3.31317 -3.26114 76.1603 4.02078 0.83764 12.2206 -1.15219 2.03217e-16 0.0 3.88251e-19 -21.7874 -48.5661 -13.3671 0.436168 46.2617 -0.350076 0.172284 -14.6037 0.0507244
24.4306 80.2391 -143.327 -10.369 -72.3241 31.9589 -18.1169 -15.6857 1.09965 -4.49328 3.49408 0.950704 6.02544 -3.34721 8.97623 -3.13568 -9.50157 15.5753 -0.0 0.0 0.0 -0.0 0.0 0.0 3.34646e-13 -2.33881e-13 -4.32908e-13 95.8072 49.5573 -26.8746 -24.542 -20.146 51.3714 -0.409814 -17.8869 -2.59992 -7.17204e-09 -1.78409e-09 -2.73286e-09 -1.23303e-08 -3.07618e-09 -4.80037e-09 -7.17204e-09 -1.7841e-09 -2.73286e-09 7.73091 5.47488 0.417314 -7.17204e-09 -1.7841e-09 -2.73285e-09 2.90554 0.965183 0.102902 -7.17204e-09 -1.7841e-09 -2.73286e-09 10.2786 0.731801 0.0259123 -7.17204e-09 -1.7841e-09 -2.73285e-09 2.22167 -0.733487 -0.20892 3.34498e-13 -2.3391e-13 -4.33109e-13 -65.4299 21.3086 0.175201 11.2083 -4.90813 -20.0896 1.1688 -29.1415 4.49418 -7.91574e-09 -2.43942e-09 -7.52425e-09 -1.35379e-08 -4.25178e-09 -1.31501e-08 -7.91575e-09 -2.43942e-09 -7.52422e-09 -7.73091 5.47488 -0.417314 -7.91574e-09 -2.43942e-09 -7.52425e-09 -2.90554 0.965183 -0.102902 -7.91575e-09 -2.43943e-09 -7.52425e-09 -10.2786 0.731801 -0.0259123 -7.91574e-09 -2.43942e-09 -7.52425e-09 -2.22167 -0.733487 0.20892 -2.03217e-16 0.0 -3.88251e-19 -0.995401 -52.8552 5.04115 -3.26984 76.2226 4.0473 0.833173 11.8305 -2.00195 2.03217e-16 0.0 3.88251e-19 -20.2859 -47.694 -12.1806 0.423256 46.2616 -0.427551 0.0564295 -15.3565 -0.514481
23.3497 80.4142 -143.418 -11.7122 -71.9467 32.8519 -18.0571 -15.5843 1.24543 -4.23834 3.46995 0.988672 6.16015 -3.22859 9.03937 -3.14856 -9.54116 15.663 -0.0 0.0 0.0 -0.0 0.0 0.0 3.91229e-13 -7.63155e-14 -4.26045e-13 96.9767 49.1874 -28.3387 -24.417 -19.8972 50.9568 -0.413604 -17.9791 -2.61404 -8.23623e-09 -2.09142e-09 -3.44568e-09 -1.41559e-08 -3.60702e-09 -6.0448e-09 -8.23622e-09 -2.09143e-09 -3.44569e-09 7.73091 5.47488 0.417314 -8.23622e-09 -2.09143e-09 -3.44568e-09 2.90554 0.965183 0.102902 -8.23623e-09 -2.09143e-09 -3.44568e-09 10.2786 0.731801 0.0259123 -8.23623e-09 -2.09143e-09 -3.44568e-09 2.22167 -0.733487 -0.20892 3.91114e-13 -7.63519e-14 -4.26244e-13 -65.6558 22.8823 -0.593609 11.6525 -5.20787 -20.9393 1.16576 -29.1082 4.48801 -8.94672e-09 -2.51602e-09 -8.11249e-09 -1.53106e-08 -4.3898e-09 -1.41859e-08 -8.94672e-09 -2.51602e-09 -8.11246e-09 -7.73091 5.47488 -0.417314 -8.94672e-09 -2.51602e-09 -8.11249e-09 -2.90554 0.965183 -0.102902 -8.94672e-09 -2.51603e-09 -8.11249e-09 -10.2786 0.731801 -0.0259123 -8.94672e-09 -2.51602e-09 -8.11249e-09 -2.22167 -0.733487 0.20892 -2.03217e-16 0.0 -3.88251e-19 0.359094 -53.543 6.33748 -3.2543 76.1974 4.04637 0.807875 11.3387 -2.73904 2.03217e-16 0.0 3.88251e-19 -19.2635 -46.8891 -11.5497 0.409374 46.2205 -0.503327 -0.0566503 -15.9717 -1.02565
22.3419 80.5627 -143.419 -12.5303 -71.3804 33.3262 -17.9124 -15.5332 1.08842 -4.10297 3.40389 0.943739 6.33711 -3.10487 9.13704 -3.24902 -9.5079 15.7997 -0.0 0.0 0.0 -0.0 0.0 0.0 3.71786e-13 2.01097e-13 -2.75732e-13 98.0242 48.8046 -29.7441 -24.2896 -19.6485 50.5377 -0.433161 -18.3951 -2.67868 -6.90956e-09 -1.73435e-09 -3.18281e-09 -1.18722e-08 -2.99115e-09 -5.5762e-09 -6.90956e-09 -1.73436e-09 -3.18281e-09 7.73091 5.47488 0.417314 -6.90956e-09 -1.73436e-09 -3.18281e-09 2.90554 0.965183 0.102902 -6.90956e-09 -1.73436e-09 -3.18281e-09 10.2786 0.731801 0.0259123 -6.90956e-09 -1.73436e-09 -3.1828e-09 2.22167 -0.733487 -0.20892 3.71707e-13 2.01081e-13 -2.75917e-13 -66.0416 24.1754 -1.23195 12.1007 -5.5199 -21.8038 1.15408 -28.979 4.46412 -7.74028e-09 -1.92176e-09 -6.23333e-09 -1.3261e-08 -3.35883e-09 -1.09174e-08 -7.74028e-09 -1.92176e-09 -6.2333e-09 -7.73091 5.47488 -0.417314 -7.74028e-09 -1.92177e-09 -6.23333e-09 -2.90554 0.965183 -0.102902 -7.74028e-09 -1.92177e-09 -6.23333e-09 -10.2786 0.731801 -0.0259123 -7.74027e-09 -1.92176e-09 -6.23333e-09 -2.22167 -0.733487 0.20892 -2.03217e-16 0.0 -3.88251e-19 1.08747 -54.3927 7.04826 -3.22256 76.1084 4.02556 0.757949 10.7219 -3.3186 2.03217e-16 0.0 3.88251e-19 -18.8057 -46.1782 -11.5813 0.39364 46.1332 -0.576973 -0.158574 -16.4146 -1.47567
